<?xml version="1.0" standalone="no"?>
<!DOCTYPE svg PUBLIC "-//W3C//DTD SVG 20010904//EN"
 "http://www.w3.org/TR/2001/REC-SVG-20010904/DTD/svg10.dtd">
<svg version="1.0" xmlns="http://www.w3.org/2000/svg"
 width="260.000000pt" height="260.000000pt" viewBox="0 0 260.000000 260.000000"
 preserveAspectRatio="xMidYMid meet">
<metadata>
Created by potrace 1.11, written by Peter Selinger 2001-2013
</metadata>
<g transform="translate(0.000000,260.000000) scale(0.100000,-0.100000)"
fill="#000000" stroke="none">
<path d="M1780 2592 c-65 -30 -99 -83 -164 -257 -32 -82 -61 -159 -66 -170 -4
-11 -18 -49 -31 -85 -12 -36 -25 -69 -29 -75 -4 -5 -10 -21 -13 -35 -3 -14
-15 -50 -26 -80 -35 -88 -172 -598 -185 -685 -3 -16 -14 -75 -25 -130 -27
-137 -33 -166 -36 -195 -1 -14 -7 -50 -13 -80 -6 -30 -14 -77 -17 -105 -11
-85 -24 -76 -32 21 -3 38 -9 76 -13 84 -4 8 -4 24 -1 34 4 10 2 40 -5 65 -6
26 -14 63 -17 83 -2 20 -7 40 -10 46 -4 5 -9 24 -11 43 -6 46 -26 178 -31 209
-2 14 -7 45 -10 70 -12 88 -15 105 -26 146 -11 43 -48 74 -82 69 -56 -10 -71
-39 -147 -285 -31 -97 -39 -122 -61 -175 -5 -11 -24 -67 -44 -124 l-35 -104
22 -24 c26 -28 78 -31 100 -5 21 23 42 72 74 165 14 44 35 95 47 114 19 33 21
34 34 17 7 -10 13 -26 13 -37 0 -10 4 -26 9 -35 9 -17 15 -50 26 -142 3 -25 7
-52 10 -60 2 -8 6 -35 9 -60 6 -42 9 -59 21 -127 3 -16 7 -46 10 -68 3 -22 7
-51 10 -64 2 -13 7 -49 11 -80 9 -87 17 -135 39 -246 7 -38 16 -94 20 -122 12
-90 67 -131 115 -83 22 22 24 27 45 175 9 61 18 121 20 135 5 27 12 86 21 160
3 25 9 61 13 80 5 19 9 53 10 74 1 21 7 48 12 59 6 11 9 34 6 52 -3 17 1 58 9
91 8 32 18 100 24 149 12 112 16 132 41 225 20 76 67 207 80 225 4 6 10 30 13
55 4 25 11 54 15 65 5 11 19 54 31 95 57 197 153 453 207 549 19 35 57 86 83
113 26 27 60 71 74 98 24 45 26 53 16 88 -18 58 -111 107 -160 84z"/>
</g>
</svg>
